<?xml version="1.0" standalone="no"?><!DOCTYPE svg PUBLIC "-//W3C//DTD SVG 1.1//EN" "http://www.w3.org/Graphics/SVG/1.1/DTD/svg11.dtd"><svg t="1586353457879" class="icon" viewBox="0 0 1024 1024" version="1.1" xmlns="http://www.w3.org/2000/svg" p-id="10750" width="64" height="64" xmlns:xlink="http://www.w3.org/1999/xlink"><defs><style type="text/css"></style></defs><path d="M827.392 195.072C652.8 20.48 369.664 20.48 195.072 195.072 20.48 369.664 20.48 652.8 195.072 827.904c174.592 174.592 457.728 174.592 632.832 0 174.08-174.592 174.08-457.728-0.512-632.832z" fill="#2aa515" p-id="10751" data-spm-anchor-id="a313x.7781069.0.i14" class="selected"></path><path d="M352.256 671.744c0 17.408-14.336 31.744-31.744 31.744-17.408 0-31.744-14.336-31.744-31.744V352.256c0-17.408 14.336-31.744 31.744-31.744 17.408 0 31.744 14.336 31.744 31.744v319.488zM543.232 671.744c0 17.408-14.336 31.744-31.744 31.744-17.408 0-31.744-14.336-31.744-31.744V352.256c0-17.408 14.336-31.744 31.744-31.744 17.408 0 31.744 14.336 31.744 31.744v319.488zM735.744 671.744c0 17.408-14.336 31.744-31.744 31.744s-31.744-14.336-31.744-31.744V352.256c0-17.408 14.336-31.744 31.744-31.744s31.744 14.336 31.744 31.744v319.488z" fill="#FFFFFF" p-id="10752" data-spm-anchor-id="a313x.7781069.0.i15" class=""></path></svg>