<?xml version="1.0" standalone="no"?><!DOCTYPE svg PUBLIC "-//W3C//DTD SVG 1.1//EN" "http://www.w3.org/Graphics/SVG/1.1/DTD/svg11.dtd"><svg t="1585831297873" class="icon" viewBox="0 0 1024 1024" version="1.1" xmlns="http://www.w3.org/2000/svg" p-id="3587" width="80" height="80" xmlns:xlink="http://www.w3.org/1999/xlink"><defs><style type="text/css"></style></defs><path d="M533.712538 101.851631c13.248955-7.183654 30.638839-1.148579 38.658739 13.420235l73.095947 132.862338c8.060201 14.558738 3.737918 32.351632-9.511037 39.535285s-30.648914 1.148579-38.658739-13.420234l-73.106023-132.862338c-8.009825-14.558738-3.727843-32.351632 9.521113-39.535286z" fill="#515151" p-id="3588"></path><path d="M700.347117 10.388501c-8.956898-12.090301-27.26363-13.883696-40.673789-4.030101L536.815715 96.350544c-13.410159 9.82337-17.047325 27.727091-8.060201 39.787167s27.273705 13.883696 40.683864 4.030101L692.266766 50.175668c13.410159-9.82337 17.047325-27.727091 8.080351-39.787167zM485.804718 922.148359c-13.248955 7.183654-30.648914 1.148579-38.658739-13.420235l-73.106022-132.862338c-8.009825-14.558738-3.727843-32.351632 9.521112-39.535285s30.648914-1.148579 38.658739 13.420234l73.106023 132.862338c8.009825 14.558738 3.727843 32.351632-9.521113 39.535286z" fill="#515151" p-id="3589"></path><path d="M319.160063 1013.611489c8.966974 12.090301 27.273705 13.883696 40.683865 4.030101l122.857613-89.982069c13.410159-9.82337 17.047325-27.727091 8.060201-39.787167s-27.273705-13.883696-40.683865-4.0301L327.25049 973.824322c-13.410159 9.82337-17.017099 27.727091-8.090427 39.787167z" fill="#515151" p-id="3590"></path><path d="M462.470436 928.485692a32.381857 32.381857 0 0 1-4.0301-0.251882A424.168076 424.168076 0 0 1 195.063194 790.112192a418.878569 418.878569 0 0 1-39.404307-507.520629 423.744915 423.744915 0 0 1 174.825759-152.488927 32.240804 32.240804 0 0 1 27.49536 58.325629 359.333834 359.333834 0 0 0-148.247246 129.305774 354.366735 354.366735 0 0 0 33.389382 429.387056A359.756995 359.756995 0 0 0 466.399784 864.255965a32.240804 32.240804 0 0 1-3.969649 64.229727zM660.852133 902.511694a32.240804 32.240804 0 0 1-12.191054-62.103848 358.678943 358.678943 0 0 0 160.408074-129.164721 354.376811 354.376811 0 0 0-31.29373-440.590735 359.36406 359.36406 0 0 0-229.927308-114.777262 32.243826 32.243826 0 0 1 6.297032-64.17935 423.785216 423.785216 0 0 1 271.135085 135.371075 418.868494 418.868494 0 0 1 36.915721 520.719208A423.029572 423.029572 0 0 1 673.033111 900.103709a32.109826 32.109826 0 0 1-12.180978 2.407985z" fill="#515151" p-id="3591"></path></svg>