<?xml version="1.0" standalone="no"?><!DOCTYPE svg PUBLIC "-//W3C//DTD SVG 1.1//EN" "http://www.w3.org/Graphics/SVG/1.1/DTD/svg11.dtd"><svg t="1585835993048" class="icon" viewBox="0 0 1024 1024" version="1.1" xmlns="http://www.w3.org/2000/svg" p-id="5618" width="80" height="80" xmlns:xlink="http://www.w3.org/1999/xlink"><defs><style type="text/css"></style></defs><path d="M995.328 274.944c-19.456-11.264-44.544-4.608-55.808 15.36l-71.68 124.416c-17.92-79.36-57.856-153.088-116.224-211.456-81.92-81.92-190.464-126.976-306.176-126.976s-224.256 45.056-306.176 126.976c-168.96 168.96-168.96 443.392 0 612.352 83.968 83.968 194.56 126.976 306.176 126.976a432.13824 432.13824 0 0 0 306.176-126.976c31.232-31.232 56.832-66.048 77.312-104.96 10.752-19.968 3.072-44.544-17.408-55.296-19.968-10.752-44.544-3.072-55.296 17.408-16.384 31.232-37.376 59.904-62.464 84.992-14.336 14.336-30.208 27.648-47.104 39.424a350.46912 350.46912 0 0 1-449.536-39.424c-136.704-136.704-136.704-359.424 0-496.64 66.56-66.56 154.624-102.912 248.32-102.912S627.2 194.56 693.76 261.12c53.248 53.248 87.552 122.368 98.816 195.584l-150.016-86.016c-19.456-11.264-44.544-4.608-55.808 15.36-11.264 19.456-4.608 44.544 15.36 55.808l224.256 128.512c6.656 3.584 13.312 5.632 20.48 5.632 14.336 0 28.16-7.168 35.328-20.48l128.512-224.256c10.752-19.968 4.096-45.056-15.36-56.32z" fill="#515151" p-id="5619"></path></svg>