<?xml version="1.0" standalone="no"?><!DOCTYPE svg PUBLIC "-//W3C//DTD SVG 1.1//EN" "http://www.w3.org/Graphics/SVG/1.1/DTD/svg11.dtd"><svg t="1585835331996" class="icon" viewBox="0 0 1024 1024" version="1.1" xmlns="http://www.w3.org/2000/svg" p-id="4528" width="80" height="80" xmlns:xlink="http://www.w3.org/1999/xlink"><defs><style type="text/css"></style></defs><path d="M937.984 741.376c-6.144 10.24-18.432 14.336-28.672 8.192-10.24-6.144-14.336-18.432-8.192-28.672 118.784-212.992 40.96-481.28-172.032-598.016-212.992-118.784-481.28-40.96-598.016 172.032s-40.96 481.28 172.032 598.016c153.6 86.016 339.968 69.632 479.232-32.768 8.192-6.144 22.528-4.096 28.672 4.096 6.144 8.192 4.096 22.528-4.096 28.672-151.552 112.64-356.352 129.024-522.24 36.864-233.472-129.024-317.44-421.888-188.416-653.312 129.024-233.472 421.888-317.44 653.312-188.416 233.472 126.976 317.44 419.84 188.416 653.312z m-647.168-243.712l190.464 169.984 282.624-303.104c8.192-8.192 20.48-8.192 28.672 0 8.192 8.192 8.192 20.48 0 28.672l-311.296 331.776-219.136-198.656c-8.192-8.192-8.192-20.48-2.048-28.672 8.192-8.192 20.48-8.192 30.72 0z" p-id="4529" fill="#36ab60"></path></svg>